<svg xmlns="http://www.w3.org/2000/svg" id="Layer_1" data-name="Layer 1" viewBox="0 0 1733.878 974.665"><defs><style>      .cls-1 {        fill: #f5891f;      }      .cls-1, .cls-2, .cls-3, .cls-4, .cls-5, .cls-6 {        stroke-width: 0px;      }      .cls-2 {        fill: #faab18;      }      .cls-3 {        fill: #17304b;      }      .cls-4 {        fill: #fff;      }      .cls-5 {        fill: #005581;      }      .cls-6 {        fill: #0088b0;      }    </style></defs><g><rect class="cls-2" x="411.536" y="581.935" width="1132.739" height="257.166" rx="69.493" ry="69.493" transform="translate(-58.07 87.711) rotate(-4.988)"></rect><g><g><path class="cls-2" d="m365.148,839.485c-8.009,0-14.556-1.737-18.638-3.195-2.541-.907-5.006-2.017-7.369-3.319-14.513-7.993-24.479-22.563-26.658-38.973-1.003-7.556-.362-15.327,1.902-23.126.148-.532.305-1.063.47-1.591,2.116-6.844,5.381-14.608,8.002-20.637l1.234-3.113c.171-.443.353-.899.544-1.373l.018-.047c.164-.436.335-.869.511-1.3,0,0,1.854-4.709,3.046-7.727,8.528-21.607,16.57-41.973,24.303-61.547l36.86-93.339c.597-1.5,1.158-2.923,1.71-4.336.028-.072,8.651-21.898,10.836-27.439.992-2.507,7.284-18.448,7.284-18.448,1.217-3.062,2.417-6.1,3.615-9.146,0,0,14.023-35.513,14.963-37.903l1.946-4.927c1.296-3.274,2.575-6.517,3.864-9.79l.809-2.043c.371-.936.743-1.872,1.11-2.812.018-.046,2.204-5.586,2.204-5.586,1.283-3.233,2.53-6.396,3.787-9.587.521-1.329,1.049-2.659,1.578-3.988,0,0,5.839-14.801,6.482-16.423.044-.117.287-.748.365-.945l33.291-84.302c9.985-31.143,35.646-49.628,69.219-49.628h39.09c21.397,0,40.736,10.264,51.73,27.453,10.952,17.125,12.122,38.217,3.248,57.982-21.449,49.53-38.59,89.401-60.439,140.267l-1.958,4.561c-2.127,4.953-4.252,9.903-6.372,14.858-7.527,17.524-15.009,34.982-22.49,52.438l-11.369,26.525c-12.583,29.365-25.166,58.731-37.758,88.098l-25.438,59.209c-9.356,21.902-30.059,36.046-52.791,36.046-2.875,0-5.716-.226-8.505-.665l-6.174,11.186c-6.729,12.459-17.773,21.671-31.204,25.996-5.478,1.756-11.129,2.636-16.859,2.637Z"></path><path class="cls-2" d="m383.028,700.166c-17.356,0-33.139-8.532-43.301-23.411-1.828-2.677-3.393-5.522-4.674-8.499-16.817-39.068-34.679-80.4-51.951-120.371-17.921-41.472-36.452-84.354-53.898-124.898-2.836-6.594-4.895-11.161-6.885-15.578-3.31-7.345-6.436-14.282-11.421-26.855-8.196-20.666-6.072-43.336,5.681-60.642,11.661-17.168,30.783-27.016,52.464-27.016h36.852c29.126,0,52.24,15.885,63.429,43.582,6.564,16.137,13.501,32.361,20.21,48.054,3.193,7.469,6.411,14.995,9.622,22.587l68.83-124.722c9.577-17.642,27.904-28.565,48.04-28.565,7.941,0,14.437,1.708,18.486,3.142,2.588.915,5.097,2.041,7.501,3.365,15.324,8.438,25.389,23.888,26.923,41.325.687,7.815-.315,15.56-3.065,23.676-.275.812-.571,1.619-.888,2.417-4.906,12.362-5.399,13.62-6.445,16.287-.808,2.06-1.938,4.943-5.589,14.187l-121.338,307.289c-7.842,21.078-26.841,34.643-48.569,34.647h-.013Z"></path><path class="cls-2" d="m496.75,495.867c-5.803,0-11.698-1.008-17.453-3.134-25.654-9.474-39.071-37.679-30.236-63.56.798-2.338,1.681-4.5,2.7-6.611,8.668-17.954,26.637-28.498,45.413-28.498,6.78,0,13.666,1.375,20.258,4.273,24.842,10.921,36.577,39.552,26.547,64.768l-.39.979c-7.842,19.711-26.77,31.782-46.839,31.782Z"></path></g><path class="cls-2" d="m597.25,781.724c-32.614,0-61.021-11.557-82.146-33.421-19.002-19.666-30.91-46.975-34.437-78.974-5.106-46.336,7.046-104.831,31.714-152.657,32.052-62.14,80.691-99.777,136.96-105.98,4.349-.479,8.703-.722,12.946-.722,20.88,0,40.078,5.85,56.362,16.565,10.409-48.59,20.933-83.499,32.677-109.104,21.698-47.309,52.597-72.551,94.461-77.169,3.686-.406,7.411-.61,11.09-.61,21.194,0,41.602,6.809,57.462,19.171,16.938,13.202,28.221,32.229,32.232,54.112.116-.038,63.583-20.777,63.696-20.813,0,0,2.271-.73,2.349-.756,6.062-1.932,11.883-2.87,17.793-2.87,16.823,0,38.543,8.688,49.051,33.075l.039.091c.166.371.327.743.484,1.118l.07.167c5.842,12.876,6.855,27.128,3.094,40.275,3.435,1.919,6.619,4.185,9.515,6.771,14.377-7.047,29.613-11.536,45.473-13.282,5.615-.62,11.194-.934,16.575-.934,33.584,0,62.122,12.497,81.297,33.771,22.036-32.612,50.389-51.034,84.282-54.759,3.74-.412,7.524-.623,11.226-.623,16.003,0,31.278,3.986,44.6,11.47,7.438-9.491,17.773-16.701,29.847-20.414l53.775-17.737c.783-.259,1.573-.498,2.368-.718,5.016-1.385,10.178-2.087,15.346-2.087,19.727,0,37.802,10.151,48.068,26.74,11.475,16.952,13.155,38.986,4.262,58.246-.228.493-.463.982-.706,1.468-19.656,39.187-45.248,81.395-79.628,131.201,3.145-.485,5.955-.642,8.27-.642,10.031,0,25.02,2.821,39.461,16.266.163.152.324.305.485.459l12.363,11.819c15.567,14.418,19.274,30.3,19.624,41.151.344,10.689-2.279,26.471-16.375,41.94-27.693,33.831-60.288,53.009-96.907,57.01-6.576.729-12.585,1.086-18.301,1.086-23.84,0-44.219-6.695-60.679-19.916-15.021,11.695-27.558,18.656-30.107,20.032-.788.433-1.57.838-2.367,1.228-6.059,2.976-18.075,7.884-31.384,7.884-7.127,0-14.006-1.327-20.445-3.945-.209-.085-.417-.171-.625-.259-2.182-.921-4.262-1.972-6.358-3.212-1.055-.623-2.097-1.291-3.104-1.99l-15.692-10.896c-29.884,24.409-63.499,39.136-98.678,43.015-6.905.762-13.709,1.147-20.219,1.147-24.795,0-47.051-5.676-65.814-16.492-24.617,19.061-52.438,30.599-82.267,33.894-5.222.576-10.359.868-15.273.868-28.729,0-48.626-9.834-61.77-20.532-1.903,1.513-3.82,2.983-5.75,4.412-25.079,18.57-51.565,29.503-78.723,32.493-4.792.528-9.556.797-14.153.797-37.102,0-59.949-16.821-72.583-30.934-.2-.224-.399-.447-.598-.674-1.098,1.2-2.212,2.387-3.339,3.555-26.788,27.764-60.543,45.143-95.046,48.937-5.329.589-10.666.888-15.843.888Zm411.641-162.743h0Z"></path></g></g><g><rect class="cls-1" x="389.15" y="559.221" width="1132.739" height="257.166" rx="69.493" ry="69.493" transform="translate(-56.18 85.678) rotate(-4.988)"></rect><g><g><path class="cls-1" d="m342.762,816.771c-8.009,0-14.555-1.737-18.637-3.194-2.542-.908-5.006-2.018-7.37-3.32-14.514-7.994-24.479-22.564-26.658-38.975-1.003-7.554-.362-15.324,1.901-23.121.148-.534.306-1.064.471-1.593,2.115-6.844,5.38-14.609,8.002-20.637l1.231-3.107c.173-.447.355-.907.548-1.385l.017-.042c.165-.437.335-.87.512-1.301,0,0,1.854-4.708,3.045-7.726,8.528-21.607,16.57-41.973,24.303-61.547l36.86-93.339c.596-1.497,1.157-2.92,1.709-4.333.029-.073,4.21-10.661,4.21-10.661,2.204-5.577,4.415-11.171,6.627-16.782.992-2.506,7.284-18.447,7.284-18.447,1.216-3.06,2.416-6.099,3.615-9.146,0,0,14.023-35.514,14.963-37.904l6.619-16.76c.371-.936.743-1.872,1.11-2.812.018-.046,2.204-5.586,2.204-5.586,1.283-3.233,2.53-6.396,3.787-9.587.521-1.332,1.051-2.664,1.582-3.997,0,0,5.835-14.791,6.479-16.413.048-.129.291-.76.365-.946l33.292-84.304c9.985-31.142,35.646-49.626,69.218-49.626h39.09c21.397,0,40.736,10.264,51.73,27.453,10.953,17.126,12.122,38.22,3.246,57.987-21.437,49.498-38.579,89.377-60.438,140.262l-1.892,4.405c-2.148,5.005-4.297,10.006-6.438,15.014-7.554,17.587-15.062,35.107-22.571,52.626l-11.288,26.338c-12.583,29.365-25.166,58.731-37.758,88.098l-25.438,59.209c-9.356,21.902-30.059,36.046-52.791,36.046-2.875,0-5.716-.226-8.505-.665l-6.174,11.186c-6.729,12.459-17.773,21.671-31.204,25.996-5.478,1.756-11.129,2.636-16.859,2.637Z"></path><path class="cls-1" d="m360.642,677.453c-17.361,0-33.146-8.535-43.308-23.421-1.824-2.673-3.388-5.516-4.667-8.488-16.788-39-34.616-80.258-51.858-120.156-17.952-41.544-36.515-84.501-53.991-125.114-2.836-6.594-4.895-11.161-6.885-15.578-3.31-7.345-6.436-14.282-11.421-26.855-8.196-20.666-6.072-43.336,5.681-60.642,11.661-17.169,30.783-27.016,52.463-27.016h36.853c29.126,0,52.24,15.885,63.429,43.582,6.564,16.135,13.5,32.358,20.208,48.049,3.194,7.472,6.412,14.997,9.623,22.592l68.831-124.722c9.577-17.642,27.904-28.565,48.04-28.565,7.941,0,14.437,1.708,18.486,3.142,2.588.915,5.097,2.041,7.501,3.365,15.324,8.438,25.389,23.888,26.923,41.325.687,7.815-.315,15.56-3.065,23.676-.275.813-.572,1.62-.889,2.419-4.929,12.419-5.403,13.629-6.46,16.322-.807,2.057-1.945,4.962-5.572,14.147l-121.339,307.292c-7.843,21.078-26.843,34.642-48.569,34.646h-.013Z"></path><path class="cls-1" d="m474.364,473.153c-5.805,0-11.701-1.009-17.457-3.135-25.655-9.478-39.069-37.687-30.229-63.567.796-2.332,1.677-4.488,2.692-6.594,8.666-17.958,26.639-28.507,45.418-28.507,6.779,0,13.663,1.374,20.253,4.271,24.846,10.92,36.583,39.552,26.552,64.77l-.39.979c-7.842,19.71-26.77,31.782-46.839,31.782Z"></path></g><path class="cls-1" d="m574.864,759.01c-32.615,0-61.021-11.557-82.146-33.421-19.002-19.666-30.91-46.975-34.437-78.974-5.106-46.336,7.046-104.831,31.714-152.657,32.052-62.14,80.691-99.777,136.96-105.98,4.349-.479,8.703-.722,12.946-.722,20.88,0,40.078,5.85,56.362,16.565,10.409-48.59,20.933-83.499,32.677-109.104,21.698-47.309,52.597-72.551,94.461-77.169,3.686-.406,7.411-.61,11.09-.61,21.194,0,41.602,6.809,57.462,19.171,16.938,13.202,28.221,32.229,32.232,54.112.116-.038,63.585-20.777,63.699-20.814,0,0,2.267-.729,2.346-.755,6.062-1.932,11.883-2.87,17.793-2.87,16.823,0,38.543,8.688,49.051,33.075l.039.091c.166.371.327.743.484,1.118l.069.165c5.843,12.876,6.856,27.13,3.095,40.277,3.435,1.919,6.619,4.185,9.515,6.771,14.377-7.047,29.613-11.536,45.473-13.282,5.615-.62,11.194-.934,16.575-.934,33.584,0,62.122,12.497,81.297,33.771,22.036-32.612,50.389-51.034,84.282-54.759,3.74-.412,7.524-.623,11.226-.623,16.003,0,31.278,3.986,44.6,11.47,7.438-9.491,17.773-16.701,29.847-20.414l53.775-17.737c.783-.259,1.573-.498,2.368-.718,5.016-1.385,10.178-2.087,15.346-2.087,19.727,0,37.802,10.151,48.068,26.74,11.475,16.952,13.155,38.986,4.262,58.246-.228.493-.463.982-.706,1.468-19.656,39.187-45.248,81.395-79.628,131.201,3.145-.485,5.955-.642,8.27-.642,10.031,0,25.02,2.821,39.461,16.266.163.152.324.305.485.459l12.36,11.816c15.57,14.419,19.277,30.302,19.627,41.153.344,10.689-2.279,26.472-16.375,41.941-27.693,33.831-60.288,53.009-96.907,57.01-6.576.729-12.585,1.086-18.301,1.086-23.84,0-44.219-6.695-60.679-19.916-15.006,11.684-27.534,18.643-30.101,20.028-.806.442-1.604.856-2.421,1.255-6.073,2.977-18.062,7.86-31.337,7.86-7.127,0-14.006-1.327-20.445-3.945-.209-.085-.417-.171-.625-.259-2.193-.926-4.283-1.982-6.39-3.229-1.044-.619-2.075-1.28-3.072-1.973l-15.692-10.896c-29.884,24.409-63.499,39.136-98.678,43.015-6.905.762-13.709,1.147-20.219,1.147-24.795,0-47.051-5.676-65.814-16.492-24.617,19.061-52.438,30.599-82.267,33.894-5.222.576-10.359.868-15.273.868-28.729,0-48.626-9.834-61.77-20.532-1.903,1.513-3.82,2.983-5.75,4.412-25.079,18.57-51.565,29.503-78.723,32.493-4.792.528-9.556.797-14.153.797-37.102,0-59.949-16.821-72.583-30.934-.2-.224-.399-.447-.598-.674-1.098,1.2-2.212,2.387-3.339,3.555-26.788,27.764-60.543,45.143-95.046,48.937-5.329.589-10.666.888-15.843.888Zm411.642-162.743h0Z"></path></g></g><g><rect class="cls-6" x="366.763" y="536.507" width="1132.739" height="257.166" rx="69.493" ry="69.493" transform="translate(-54.29 83.646) rotate(-4.988)"></rect><g><g><path class="cls-6" d="m320.376,794.057c-8.009,0-14.556-1.737-18.638-3.195-2.547-.909-5.016-2.021-7.383-3.326-14.722-8.115-24.433-22.318-26.644-38.967-1.002-7.547-.364-15.31,1.895-23.099.139-.498.284-.995.438-1.489,2.116-6.881,5.405-14.704,8.045-20.771l1.239-3.129c.168-.433.344-.876.53-1.338l.065-.171c.149-.395.305-.786.464-1.176l3.045-7.727c8.535-21.622,27.801-70.396,27.801-70.396l33.374-84.517c.583-1.467,1.148-2.898,1.703-4.319.029-.073,18.121-45.891,18.121-45.891,1.216-3.061,2.415-6.1,3.614-9.146,0,0,13.99-35.428,14.969-37.915l9.929-25.146c1.281-3.23,2.528-6.39,3.782-9.577.521-1.333,1.052-2.666,1.584-4,0,0,5.92-15.006,6.469-16.389.048-.127.31-.808.394-1.019l.363-.91,32.912-83.354c9.987-31.141,35.648-49.625,69.219-49.625h39.09c21.398,0,40.737,10.264,51.731,27.455,10.952,17.127,12.121,38.22,3.243,57.987-21.25,49.069-38.463,89.108-60.437,140.261l-1.856,4.323c-2.16,5.03-4.318,10.057-6.47,15.089-7.786,18.127-15.524,36.182-23.261,54.234l-10.436,24.347c-12.638,29.495-25.276,58.991-37.926,88.487l-25.456,59.258c-9.367,21.876-30.056,35.996-52.771,35.996-2.876,0-5.716-.226-8.506-.665l-6.178,11.193c-6.727,12.45-17.763,21.656-31.184,25.983-5.5,1.762-11.148,2.641-16.876,2.642Z"></path><path class="cls-6" d="m338.256,654.739c-17.356,0-33.139-8.532-43.301-23.411-1.828-2.677-3.393-5.522-4.674-8.499-16.817-39.068-34.679-80.4-51.951-120.371-17.921-41.472-36.452-84.354-53.898-124.898-2.839-6.602-4.898-11.172-6.89-15.592-3.309-7.341-6.433-14.274-11.416-26.84-8.196-20.668-6.072-43.339,5.682-60.644,11.66-17.169,30.782-27.017,52.463-27.017h36.852c29.12,0,52.231,15.879,63.424,43.567,6.567,16.145,13.508,32.38,20.22,48.079,3.192,7.467,6.408,14.988,9.617,22.577l68.832-124.723c9.576-17.643,27.903-28.564,48.039-28.564,7.942,0,14.438,1.709,18.489,3.143,2.581.914,5.085,2.036,7.483,3.356,15.336,8.438,25.405,23.894,26.938,41.341.686,7.812-.317,15.555-3.066,23.668-.275.812-.571,1.619-.888,2.417-4.912,12.377-5.4,13.621-6.448,16.295-.808,2.06-1.94,4.949-5.584,14.178l-121.334,307.277c-7.839,21.088-26.839,34.655-48.574,34.66h-.014Z"></path><path class="cls-6" d="m451.977,450.439c-5.833,0-11.758-1.019-17.539-3.165-25.654-9.527-39.019-37.787-30.105-63.661.807-2.342,1.693-4.497,2.711-6.591,8.692-17.891,26.628-28.386,45.358-28.386,6.81,0,13.72,1.386,20.334,4.307,24.81,10.957,36.501,39.581,26.455,64.773l-.391.979c-7.854,19.691-26.771,31.743-46.823,31.743Z"></path></g><path class="cls-6" d="m552.477,736.296c-32.614,0-61.021-11.557-82.146-33.421-19.002-19.666-30.909-46.974-34.437-78.973-5.106-46.337,7.046-104.832,31.715-152.658,32.051-62.14,80.691-99.777,136.96-105.98,4.348-.479,8.703-.722,12.946-.722,20.88,0,40.077,5.85,56.361,16.565,10.409-48.591,20.934-83.499,32.677-109.104,21.698-47.309,52.597-72.551,94.461-77.169,3.686-.406,7.411-.61,11.09-.61,21.194,0,41.601,6.808,57.461,19.17,16.939,13.203,28.222,32.229,32.234,54.113.104-.034,63.593-20.78,63.711-20.818,0,0,2.256-.726,2.334-.751,6.062-1.932,11.883-2.87,17.793-2.87,16.823,0,38.544,8.689,49.05,33.077l.038.088c.167.371.328.744.485,1.119l.069.165c5.843,12.876,6.856,27.13,3.095,40.276,3.434,1.919,6.621,4.187,9.516,6.772,14.377-7.047,29.613-11.536,45.473-13.282,5.615-.62,11.194-.934,16.574-.934,33.585,0,62.123,12.497,81.298,33.771,22.035-32.612,50.389-51.034,84.281-54.759,3.74-.412,7.525-.623,11.226-.623,16.003,0,31.278,3.986,44.601,11.47,7.438-9.492,17.773-16.701,29.848-20.415l53.773-17.736c.783-.259,1.573-.498,2.368-.718,5.016-1.385,10.178-2.087,15.346-2.087,19.727,0,37.802,10.151,48.068,26.74,11.475,16.952,13.155,38.986,4.262,58.246-.228.493-.463.982-.706,1.468-19.656,39.187-45.248,81.395-79.628,131.201,3.145-.485,5.955-.642,8.271-.642,10.03,0,25.019,2.821,39.46,16.266.163.152.324.305.485.459l12.36,11.816c15.57,14.419,19.277,30.302,19.627,41.153.344,10.689-2.279,26.472-16.375,41.942-27.692,33.831-60.286,53.008-96.907,57.009-6.576.729-12.585,1.086-18.301,1.086-23.84,0-44.219-6.694-60.679-19.916-14.967,11.653-27.471,18.607-30.082,20.018-.785.433-1.562.837-2.356,1.226-6.045,2.971-18.085,7.9-31.42,7.9-7.127,0-14.006-1.327-20.445-3.945-.256-.104-.511-.21-.765-.317-2.201-.938-4.299-2.006-6.41-3.267-.991-.592-1.962-1.218-2.91-1.876l-15.694-10.897c-29.884,24.409-63.499,39.136-98.678,43.015-6.905.762-13.708,1.147-20.219,1.147-24.794,0-47.051-5.676-65.814-16.492-24.619,19.062-52.436,30.599-82.267,33.894-5.222.576-10.358.868-15.272.868-28.729,0-48.627-9.834-61.77-20.532-1.903,1.513-3.821,2.983-5.751,4.412-25.079,18.57-51.565,29.503-78.723,32.493-4.792.528-9.556.797-14.153.797-37.102,0-59.949-16.822-72.583-30.934-.2-.224-.398-.447-.597-.674-1.098,1.2-2.213,2.387-3.339,3.555-26.789,27.764-60.544,45.143-95.047,48.937-5.329.589-10.666.888-15.843.888Zm841.931-270.174h0Zm-331.888-40.825s0,0,0,0Z"></path></g></g><g><rect class="cls-5" x="344.377" y="513.793" width="1132.739" height="257.166" rx="69.493" ry="69.493" transform="translate(-52.4 81.614) rotate(-4.988)"></rect><g><g><path class="cls-5" d="m297.989,771.343c-8.009,0-14.556-1.737-18.638-3.195-2.547-.909-5.016-2.021-7.383-3.326-14.722-8.115-24.433-22.318-26.644-38.967-1.002-7.547-.364-15.31,1.895-23.099.139-.498.284-.995.438-1.489,2.116-6.881,5.405-14.704,8.045-20.771l1.239-3.129c.168-.433.344-.876.53-1.338l.065-.171c.149-.395.305-.786.464-1.176l3.045-7.727c8.535-21.622,27.801-70.396,27.801-70.396l33.374-84.517c.583-1.467,1.148-2.898,1.703-4.319.029-.073,18.121-45.891,18.121-45.891,1.216-3.061,2.415-6.1,3.614-9.146,0,0,13.99-35.428,14.969-37.915l9.929-25.146c1.281-3.23,2.528-6.39,3.782-9.577.521-1.333,1.052-2.666,1.584-4,0,0,5.92-15.006,6.469-16.389.048-.127.31-.808.394-1.019l.363-.91,32.912-83.354c9.987-31.141,35.648-49.625,69.219-49.625h39.09c21.398,0,40.737,10.264,51.731,27.455,10.952,17.127,12.121,38.22,3.243,57.987-21.25,49.069-38.463,89.108-60.437,140.261l-1.856,4.323c-2.16,5.03-4.318,10.057-6.47,15.089-7.786,18.127-15.524,36.182-23.261,54.234l-10.436,24.347c-12.638,29.495-25.276,58.991-37.926,88.487l-25.456,59.258c-9.367,21.876-30.056,35.996-52.771,35.996-2.876,0-5.716-.226-8.506-.665l-6.178,11.193c-6.727,12.45-17.763,21.656-31.184,25.983-5.5,1.762-11.148,2.641-16.876,2.642Z"></path><path class="cls-5" d="m315.87,632.025c-17.356,0-33.14-8.533-43.302-23.411-1.828-2.677-3.393-5.522-4.674-8.499-16.817-39.068-34.679-80.4-51.951-120.371-17.921-41.472-36.452-84.354-53.898-124.898-2.839-6.602-4.898-11.172-6.89-15.592-3.309-7.341-6.433-14.274-11.416-26.84-8.196-20.668-6.072-43.339,5.682-60.644,11.66-17.169,30.782-27.017,52.463-27.017h36.852c29.12,0,52.231,15.879,63.424,43.567,6.567,16.145,13.508,32.38,20.22,48.079,3.192,7.467,6.408,14.987,9.617,22.576l68.835-124.728c9.578-17.638,27.902-28.559,48.036-28.559,7.942,0,14.438,1.709,18.489,3.143,2.581.914,5.085,2.036,7.483,3.356,15.336,8.438,25.405,23.894,26.938,41.341.686,7.812-.317,15.555-3.066,23.668-.275.812-.571,1.619-.888,2.417-4.912,12.377-5.4,13.621-6.448,16.295-.808,2.06-1.94,4.949-5.584,14.178l-121.332,307.271c-7.84,21.095-26.846,34.667-48.589,34.667Z"></path><path class="cls-5" d="m429.591,427.725c-5.833,0-11.758-1.019-17.539-3.165-25.654-9.527-39.019-37.787-30.105-63.661.807-2.342,1.693-4.497,2.711-6.591,8.692-17.891,26.628-28.386,45.358-28.386,6.81,0,13.72,1.386,20.334,4.307,24.81,10.957,36.501,39.581,26.455,64.773l-.391.979c-7.854,19.691-26.771,31.743-46.823,31.743Z"></path></g><path class="cls-5" d="m530.091,713.582c-32.614,0-61.021-11.557-82.146-33.421-19.002-19.666-30.909-46.974-34.437-78.973-5.106-46.337,7.046-104.832,31.715-152.658,32.051-62.14,80.691-99.777,136.96-105.98,4.348-.479,8.703-.722,12.946-.722,20.88,0,40.077,5.85,56.361,16.565,10.409-48.591,20.934-83.499,32.677-109.104,21.698-47.309,52.597-72.551,94.461-77.169,3.686-.406,7.411-.61,11.09-.61,21.194,0,41.601,6.808,57.461,19.17,16.939,13.203,28.222,32.229,32.234,54.113.104-.034,63.593-20.78,63.711-20.818,0,0,2.256-.726,2.334-.751,6.062-1.932,11.883-2.87,17.793-2.87,16.823,0,38.544,8.689,49.05,33.077l.038.088c.167.371.328.744.485,1.119l.069.165c5.843,12.876,6.856,27.13,3.095,40.276,3.434,1.919,6.621,4.187,9.516,6.772,14.377-7.047,29.613-11.536,45.473-13.282,5.615-.62,11.194-.934,16.574-.934,33.585,0,62.123,12.497,81.298,33.771,22.035-32.612,50.389-51.034,84.281-54.759,3.74-.412,7.525-.623,11.226-.623,16.003,0,31.278,3.986,44.601,11.47,7.438-9.492,17.773-16.701,29.848-20.415l53.773-17.736c.783-.259,1.573-.498,2.368-.718,5.016-1.385,10.178-2.087,15.346-2.087,19.727,0,37.802,10.151,48.068,26.74,11.475,16.952,13.155,38.986,4.262,58.246-.228.493-.463.982-.706,1.468-19.656,39.187-45.248,81.395-79.628,131.201,3.145-.485,5.955-.642,8.271-.642,10.03,0,25.019,2.821,39.46,16.266.163.152.324.305.485.459l12.36,11.816c15.57,14.419,19.277,30.302,19.627,41.153.344,10.689-2.279,26.472-16.375,41.942-27.692,33.831-60.286,53.008-96.907,57.009-6.576.729-12.585,1.086-18.301,1.086-23.84,0-44.219-6.694-60.679-19.916-14.967,11.653-27.471,18.607-30.082,20.018-.785.433-1.562.837-2.356,1.226-6.045,2.971-18.085,7.9-31.42,7.9-7.127,0-14.006-1.327-20.445-3.945-.256-.104-.511-.21-.765-.317-2.201-.938-4.299-2.006-6.41-3.267-.991-.592-1.962-1.218-2.91-1.876l-15.694-10.897c-29.884,24.409-63.499,39.136-98.678,43.015-6.905.762-13.708,1.147-20.219,1.147-24.794,0-47.051-5.676-65.814-16.492-24.619,19.062-52.436,30.599-82.267,33.894-5.222.576-10.358.868-15.272.868-28.729,0-48.627-9.834-61.77-20.532-1.903,1.513-3.821,2.983-5.751,4.412-25.079,18.57-51.565,29.503-78.723,32.493-4.792.528-9.556.797-14.153.797-37.102,0-59.949-16.822-72.583-30.934-.2-.224-.398-.447-.597-.674-1.098,1.2-2.213,2.387-3.339,3.555-26.789,27.764-60.544,45.143-95.047,48.937-5.329.589-10.666.888-15.843.888Zm841.931-270.174-331.888-40.825"></path></g></g><g><rect class="cls-3" x="317.967" y="483.201" width="1132.739" height="257.166" rx="69.493" ry="69.493" transform="translate(-49.841 79.202) rotate(-4.988)"></rect><g><g><path class="cls-3" d="m271.58,740.75c-8.021,0-14.577-1.742-18.664-3.204-2.527-.903-4.978-2.008-7.329-3.302-14.521-7.992-24.492-22.565-26.672-38.982-1.002-7.543-.365-15.301,1.891-23.085.146-.526.301-1.051.463-1.572,2.117-6.863,5.393-14.653,8.022-20.701l1.243-3.137c.165-.426.34-.864.524-1.322l.068-.18c.151-.396.307-.791.467-1.184l3.042-7.718c8.535-21.622,27.8-70.396,27.8-70.396l33.375-84.518c.581-1.463,1.146-2.89,1.699-4.309.03-.079,18.125-45.9,18.125-45.9,1.214-3.056,2.413-6.094,3.612-9.143,0,0,9.34-23.661,9.35-23.686l2.535-6.412c1.024-2.592,2.055-5.198,3.085-7.818l9.93-25.149c1.278-3.223,2.523-6.377,3.776-9.561.524-1.342,1.058-2.684,1.593-4.023,0,0,5.912-14.988,6.459-16.365.035-.094.3-.785.4-1.036l.363-.91,32.913-83.354c9.987-31.139,35.648-49.623,69.218-49.623h39.09c21.399,0,40.738,10.264,51.731,27.456,10.951,17.125,12.121,38.214,3.246,57.979-21.167,48.876-38.41,88.986-60.44,140.269l-1.855,4.322c-2.16,5.03-4.318,10.057-6.47,15.089-7.673,17.862-15.297,35.652-22.92,53.439l-9.286,21.665c-13.135,30.655-26.271,61.31-39.416,91.965l-25.45,59.243c-9.364,21.882-30.058,36.01-52.777,36.01-2.875,0-5.715-.226-8.504-.665l-6.176,11.188c-6.726,12.451-17.764,21.661-31.187,25.989-5.5,1.762-11.147,2.641-16.875,2.641Z"></path><path class="cls-3" d="m289.459,601.432c-17.356,0-33.139-8.532-43.301-23.411-1.828-2.677-3.393-5.522-4.674-8.499-16.817-39.068-34.679-80.4-51.951-120.371-17.921-41.472-36.452-84.354-53.898-124.898-2.838-6.599-4.896-11.168-6.888-15.587-3.309-7.342-6.434-14.277-11.418-26.845-8.196-20.666-6.072-43.337,5.681-60.643,11.661-17.169,30.783-27.017,52.464-27.017h36.852c29.112,0,52.219,15.871,63.415,43.546,6.57,16.151,13.514,32.394,20.229,48.1,3.192,7.467,6.408,14.988,9.617,22.577l68.839-124.734c9.579-17.635,27.901-28.552,48.032-28.552,7.943,0,14.439,1.709,18.49,3.143,2.59.916,5.101,2.043,7.508,3.369,15.32,8.442,25.381,23.892,26.912,41.328.686,7.813-.317,15.555-3.066,23.668-.275.813-.571,1.619-.889,2.417-4.92,12.399-5.401,13.626-6.453,16.311-.807,2.058-1.943,4.955-5.578,14.161l-121.335,307.279c-7.84,21.085-26.84,34.653-48.573,34.658h-.014Z"></path><path class="cls-3" d="m403.181,397.132c-5.84,0-11.774-1.021-17.562-3.174-25.659-9.543-39.008-37.824-30.067-63.699.805-2.326,1.686-4.466,2.693-6.541,8.692-17.894,26.628-28.389,45.36-28.389,6.808,0,13.72,1.386,20.333,4.307,24.811,10.955,36.502,39.581,26.456,64.773l-.391.979c-7.854,19.693-26.771,31.743-46.823,31.743Z"></path></g><path class="cls-3" d="m503.683,682.991c-32.615,0-61.021-11.557-82.147-33.421-19.003-19.667-30.911-46.976-34.438-78.975-5.106-46.336,7.046-104.83,31.714-152.656,32.052-62.14,80.691-99.777,136.96-105.98,4.348-.479,8.704-.722,12.947-.722,20.88,0,40.077,5.849,56.361,16.564,10.409-48.59,20.933-83.498,32.677-109.104,21.698-47.309,52.597-72.551,94.461-77.169,3.686-.406,7.411-.61,11.09-.61,21.194,0,41.602,6.809,57.462,19.171,16.938,13.203,28.22,32.229,32.232,54.112.116-.038,63.585-20.777,63.699-20.814,0,0,2.273-.731,2.355-.758,6.06-1.929,11.876-2.866,17.782-2.866,16.821,0,38.54,8.687,49.049,33.068l.04.093c.167.372.329.746.486,1.122l.072.172c5.84,12.875,6.853,27.127,3.091,40.271,3.435,1.92,6.62,4.186,9.516,6.771,14.376-7.047,29.612-11.535,45.472-13.282,5.616-.62,11.195-.934,16.575-.934,33.585,0,62.123,12.497,81.298,33.771,22.036-32.611,50.389-51.033,84.28-54.759,3.743-.412,7.526-.623,11.226-.623,16.003,0,31.279,3.987,44.602,11.47,7.438-9.491,17.773-16.701,29.847-20.414l53.775-17.737c.783-.259,1.573-.498,2.368-.718,5.015-1.385,10.178-2.087,15.345-2.087,19.731,0,37.811,10.155,48.077,26.752,11.466,16.948,13.146,38.975,4.257,58.229-.229.495-.465.986-.709,1.474-19.656,39.187-45.248,81.394-79.628,131.2,3.146-.485,5.955-.642,8.271-.642,10.031,0,25.02,2.822,39.46,16.266.163.152.324.305.485.459l12.36,11.816c15.57,14.419,19.277,30.302,19.627,41.153.344,10.689-2.281,26.472-16.374,41.941-27.693,33.832-60.288,53.01-96.908,57.011-6.576.728-12.585,1.085-18.3,1.085-23.839,0-44.219-6.694-60.679-19.916-14.923,11.618-27.397,18.566-30.061,20.006-.797.438-1.586.85-2.392,1.244-6.044,2.969-18.08,7.894-31.407,7.894-7.127,0-14.006-1.327-20.445-3.945-.117-.047-.233-.095-.35-.144-2.409-1-4.694-2.157-6.984-3.536-.937-.563-1.854-1.158-2.753-1.781l-15.692-10.896c-29.884,24.409-63.499,39.136-98.679,43.015-6.904.762-13.709,1.147-20.221,1.147-24.793,0-47.049-5.675-65.812-16.491-24.62,19.062-52.437,30.599-82.269,33.893-5.22.576-10.357.868-15.271.868-28.729,0-48.626-9.834-61.77-20.532-1.903,1.513-3.82,2.983-5.75,4.412-25.079,18.57-51.565,29.503-78.723,32.493-4.792.529-9.557.797-14.154.797-37.103,0-59.95-16.821-72.583-30.934-.2-.223-.399-.448-.597-.673-1.099,1.2-2.212,2.386-3.339,3.554-26.788,27.764-60.542,45.143-95.045,48.938-5.33.589-10.666.888-15.842.888Zm411.64-162.744,98.401-148.254"></path></g></g><g><g><path class="cls-4" d="m505.885,260.82c-21.71,50.13-39.11,90.61-60.67,140.8-2.79,6.5-5.58,12.99-8.36,19.49-10.67,24.84-21.31,49.69-31.96,74.53-13.21,30.83-26.42,61.66-39.64,92.49l-25.45,59.24c-2.59,6.11-8.83,8.4-12.9.01-4.31-8.88-5.61-13.3-8.23-20.3-2.45-6.57-6.28-6.26-9.65-.14l-34.65,62.78c-.62,1.2-1.49,1.79-2.36,2.07-1.56.5-3.1-.05-3.1-.05-1.18-.65-1.33-1.84-.57-4.23,0-.03.02-.07.03-.11.01-.06.03-.13.05-.19,1.81-5.92,6.2-15.72,6.47-16.39l1.61-4.06c.11-.29.23-.59.36-.91.13-.32.26-.66.4-1.03.15-.36.3-.75.46-1.16.72-1.83,1.64-4.16,2.82-7.15,8.53-21.61,16.57-41.97,24.3-61.54l3.49-8.83c10.3-26.09,20.08-50.85,29.77-75.39,1.2-3.03,2.39-6.06,3.59-9.09.6-1.51,1.2-3.03,1.79-4.54,1.2-3.03,2.39-6.06,3.59-9.09,2.39-6.05,4.79-12.12,7.19-18.21,1.81-4.57,3.61-9.15,5.43-13.75.61-1.53,1.21-3.07,1.82-4.61,1.22-3.07,2.44-6.16,3.66-9.26.61-1.55,1.23-3.1,1.84-4.66,1.23-3.11,2.46-6.24,3.7-9.38,1.24-3.14,2.49-6.3,3.74-9.47.63-1.59,1.26-3.18,1.89-4.78,1.26-3.19,2.53-6.4,3.8-9.63.64-1.62,1.28-3.24,1.92-4.86,1.29-3.26,2.58-6.53,3.88-9.83.65-1.65,1.31-3.3,1.96-4.96l2.15-5.45c1.27-3.2,2.54-6.42,3.82-9.67.5-1.28,1.01-2.56,1.52-3.84l1.52-3.86c1.02-2.59,2.05-5.18,3.08-7.8.69-1.75,1.38-3.5,2.08-5.26.05-.12.09-.25.14-.38l.39-.979,33.69-85.32c3.4-12.07,10.99-15.86,21.6-15.86h39.09c6.79,0,13.59,4.46,8.9,14.61Z"></path><path class="cls-4" d="m417.701,209.427c1.745-3.338,5.457-2.025,5.457-2.025,1.253.69,1.344,1.997.435,4.68-8.721,21.976-3.659,9.267-12.064,30.552-45.51,115.255-77.04,195.104-121.525,307.761-.505,1.278-1.09,3.94-3.2.85-34.268-79.609-71.589-165.654-105.848-245.265-7.89-18.35-10.39-22.53-17.75-41.09-3.95-9.96.463-18.679,11.294-18.679h36.852c6.65,0,12.514,1.669,16.714,12.099,21.199,52.121,44.341,100.809,62.281,154.44,1.329,3.79,5.39,6.11,9.239,4.95,3.92-1.19,4.015-2.902,6.338-5.734l111.777-202.538Z"></path><path class="cls-4" d="m402.605,347.39l-.39.979c.11-.32.24-.67.39-.979Z"></path></g><path class="cls-4" d="m1389.48,271.454c1.32-2.86,1.44-6.66-.46-9.17l-.67-1.02c-1.35-2.56-4.22-3.87-7.37-3l-54.45,17.96c-3.15.88-6.12,3.38-6.85,6.71-8.75,23.06-19.33,47.29-32.64,72.79-.73,1.4-2.82,1.07-3.09-.49l-3.8-22.37c-5.45-34.66-25.33-47.66-48.9-45.06-39.67,4.36-61.26,45.96-83.48,115.13l-.29.92-.08.21-.29.87-.28.87-3.01,9.42c-.79,2.47-1.65,4.91-2.55,7.34l-.02.06c-20.19,55.51-55.59,102.79-97.16,107.37-17.68,1.94-33.34-7.17-36.6-36.66l-.2-1.82c-.08-.81.42-1.54,1.189-1.77,58.01-16.37,117.15-51.84,108.11-133.75-3.05-27.88-24.05-51.06-67.48-46.27-75.89,8.36-119.16,117.29-112.94,186.02.03.36-.05.73-.25,1.03-16.58,26.06-37.73,49.31-54.77,51.17-9.11,1-15.3-5.92-16.95-20.92-1.06-9.64-.29-22.22,2.28-38.23l7.36-35.86h.21l1.42-5.63,13.5-53.06c1.92-10.52,5.06-21.23,7.14-29.3,14.04-4.08,28.51-8.7,41.95-13.25.05-.01.09-.03.14-.05,3.13-1.28,6.19-3.63,8.16-6.42l16.91-23.24c4.93-7.32,3.49-7.72,1.68-10.95-.63-1.17-2.74-1.74-4.92-1.92-.13-.01-.27-.02-.4-.02-1.87-.12-3.73.04-4.68.34-17.48,6.22-28.05,8.25-44.52,11.23-.82.16-1.54-.32-1.83-.98-.15-.38-.18-.81-.01-1.21.94-2.44,1.89-4.83,2.87-7.2,6.93-16.84,15.11-32.65,28.04-57.47,1.93-3.37.47-6.43-.07-7.5l-.47-1.12c-1.2-2.65-1.35-4.23-5.59-2.88l-1.42.46-.91.29-63.25,20.67c-.05.01-.1.04-.15.05-3.13,1.29-6.13,4.16-7.05,6.91-8.97,24.25-14.87,40.61-19.29,55.19-.22.7-.87,1.18-1.61,1.17-.9-.01-1.8-.02-2.69-.03-6.11-.07-11.98-.22-18.271-.73-2.59-.27-5.07,1.16-6.43,3.15-.36.52-.63,1.08-.82,1.64l-14.03,43.04c-.75,2.17-1.06,3.86-.96,5.12.22,2.58,2.2,3.43,5.8,3.2,7.21-.44,19.13-1.29,27.13-2.58l-15.1,55.42-13.1,39.06c-24.33,56.11-67.37,86.58-85.63,88.6-8.58.94-11.91-4.66-12.79-12.7-1.24-11.26,2.46-26.86,8.51-60.62.6-4.41,1.43-6.66,3.7-10.71,94.16-155.76,92.02-213.58,87.94-250.57-2.95-26.8-25.27-37.36-46.18-35.06-43.42,4.79-68.41,48.77-97.92,224l-5.02,29.86c-11.1,3.13-18.334,4.913-24.38,5.82l-4.701.612c.45-13.99,2.821-26.011-2.579-44.292-5.38-18.21-21.65-50-61.85-45.57-87.36,9.63-131.78,133.33-124.1,203.02,5.02,45.55,32.33,71.84,76.82,66.93,41.74-4.59,93.84-43.43,107.55-126.62.38-2.34.47-3.18.47-3.44,3.46-.45,8.07-.98,12.13-1.43,2.68-.29,6.98-.92,11.85-1.75-.94,5.93-1.74,11.2-2.41,15.94-2.69,18.98-3.34,29.37-2.64,39.18.1,1.44.23,2.86.39,4.29,3.9,35.37,21.92,56.17,58.37,52.15,38.59-4.25,73.16-33.75,98.74-69.21,1.55-2.15,3.08-4.33,4.55-6.52.11,2.23.26,4.41.45,6.52.09,1,.18,2,.29,2.96,3.84,34.84,20.5,53.09,57.47,49.01,34.59-3.82,63.26-23.55,85.7-53.12.71-.95,2.16-.87,2.74.17,14.05,25.26,39.25,38.88,79.87,34.4,71.29-7.86,124.02-76.81,148.62-148.96l2.91-9.09,3.95-12.29c12.12-37.68,24.05-67.21,29.95-67.86,4.28-.47,4.28,9.3,9.5,32.06l14.29,66.22c.07.35.03.71-.11,1.04-16.52,36.92-42.83,60.83-74.09,90.71-.18.17-.48.53-.63.74-1.02,1.44-6.1,9.63-3.81,11.47l18.06,12.54c.1.06.2.12.32.17,2.46,1,8.53-1.45,10.68-2.51.31-.15.43-.24.6-.32,11.19-5.91,45.75-28.77,59.52-56.66.65-1.33,2.6-1.15,3.04.28,13.79,44.68,31.19,53.17,64.99,49.43,25.17-2.75,46.31-17.54,64.44-40.14.03-.03.06-.06.09-.08,5.3-5.45,4.93-8.67.14-13l-12.729-12.17c-3.62-3.37-6.42-4.15-10.21.53-.03.04-.06.07-.09.11-8.87,12.88-18.62,17.76-25.04,18.44-19.29,2.13-26.92-7.87-34.91-55.83l-2.97-17.42c-.08-.43.02-.87.28-1.23,35.57-49.87,68.88-100.57,94.13-150.91Zm-344.64,88.6c7.51-.82,16.2-3.04,17.85,13.81,2.52,25.7-29.65,59.8-51.64,74.68-1.15.78-2.7-.11-2.57-1.51,4.021-43.65,15.46-84.67,36.36-86.98Zm-151.9,5.04c-.56.17.12-.57,0,0h0Zm-172.41,18.43l4.57-30.45c17.84-103.96,28.24-117.1,33.6-117.69,4.28-.47,7.86,2.39,8.8,10.96,2.72,24.67-11,73.75-48.44,152.31-.27.72,1.26-14.22,1.47-15.13Zm-196.03,211.45c-9.11,1-14.82-6.51-16.83-24.73-4.43-40.2,11.22-159.11,47.14-163.07,8.57-.94,15.47,7.521,18.86,18.54-22.88,4.15-29.4,48.27-27.45,65.96,1.77,16.08,17.26,16.75,31.37,12.87-8.82,31.51-34.86,88.42-53.09,90.43Z"></path></g><g><path class="cls-4" d="m426.55,687.078c5.68-.584,10.174.524,13.561,3.396,3.387,2.871,5.114,6.855,5.105,11.96s-1.751,9.367-5.148,12.936c-3.397,3.49-7.896,5.522-13.576,6.106l-8.125.836-.035,20.576-8.836.908.095-54.977,16.96-1.742Zm-8.139,9.081l-.031,17.906,8.125-.835c5.916-.608,9.709-4.296,9.719-9.872.01-5.654-3.692-8.65-9.688-8.034l-8.125.835Z"></path><path class="cls-4" d="m513.164,678.175l-.095,54.977-8.835.907.041-24.268-26.663,2.74-.042,24.269-8.834.907.094-54.976,8.835-.908-.038,22.383,26.662-2.74.039-22.383,8.836-.908Z"></path><path class="cls-4" d="m587.547,670.531l-21.436,36.518-.035,20.655-8.993.924.035-20.655-21.319-32.123,10.334-1.062,13.453,19.897,1.966,3.488,2.058-3.901,13.604-22.679,10.333-1.062Z"></path><path class="cls-4" d="m640.845,679.972l-8.993.924c-.07-5.097-3.22-7.757-7.953-7.271-4.654.479-7.499,3.519-7.507,7.995-.004,2.278.703,3.854,2.2,4.879,1.497,1.023,4.255,2.074,8.196,3.162,5.756,1.371,9.775,3.235,12.137,5.506,2.441,2.183,3.619,5.359,3.612,9.443-.009,5.026-1.672,9.202-4.989,12.449-3.319,3.246-7.581,5.098-12.787,5.633-11.912,1.224-18.526-4.928-18.744-15.584l8.914-.916c.225,6.258,3.69,9.356,9.922,8.717,5.602-.576,8.762-4.042,8.77-8.754.008-4.163-2.907-6.219-10.791-8-5.283-1.263-9.145-2.986-11.664-5.161-2.441-2.184-3.697-5.431-3.69-9.751.008-4.633,1.513-8.557,4.516-11.771,3.003-3.293,7.028-5.198,12.155-5.726,10.098-1.038,16.32,3.897,16.697,14.225Z"></path><path class="cls-4" d="m675.97,661.442l-.094,54.976-8.836.908.095-54.976,8.835-.908Z"></path><path class="cls-4" d="m753.009,670.486l-9.781,1.005c-2.355-6.275-7.398-8.977-15.129-8.183-5.364.552-9.706,2.883-13.105,7.08-3.397,4.118-5.062,9.157-5.073,15.048-.01,5.89,1.64,10.511,5.024,14.011,3.385,3.499,7.8,4.93,13.242,4.371,8.125-.836,13.26-5.289,15.479-11.721l9.467-.973c-3.176,12.025-11.706,19.577-24.959,20.939-8.046.827-14.668-1.162-19.865-6.047-5.117-4.892-7.71-11.378-7.695-19.624.014-8.247,2.629-15.269,7.766-21.215s11.768-9.298,19.734-10.116c13.174-1.354,21.84,4.509,24.896,15.424Z"></path><path class="cls-4" d="m802.734,648.413l21.757,52.73-9.702.997-5.263-12.887-23.271,2.392-5.23,13.965-9.703.998,21.946-57.223,9.466-.973Zm-4.83,11.49l-1.031,3.09-7.686,20.42,17.512-1.799-7.775-18.832-1.02-2.879Z"></path><path class="cls-4" d="m856.294,642.909l-.08,46.729,23.901-2.457-.014,8.247-32.737,3.364.095-54.976,8.835-.908Z"></path><path class="cls-4" d="m976.824,630.521l-.014,8.246-18.854,1.938-.08,46.73-8.836.908.08-46.73-18.773,1.93.014-8.246,46.463-4.775Z"></path><path class="cls-4" d="m1043.715,623.646l-.094,54.977-8.836.907.042-24.269-26.663,2.741-.041,24.269-8.836.907.095-54.976,8.835-.908-.038,22.383,26.663-2.74.038-22.383,8.835-.908Z"></path><path class="cls-4" d="m1102.322,617.622l-.014,8.246-22.166,2.278-.025,14.372,19.326-1.986-.014,8.168-19.326,1.986-.027,15.943,22.166-2.279-.014,8.247-31.002,3.187.094-54.977,31.002-3.186Z"></path><path class="cls-4" d="m1143.576,613.382c5.68-.584,10.172.525,13.561,3.318,3.387,2.714,5.113,6.619,5.105,11.725-.012,6.99-3.729,12.868-10.043,16.029l12.346,21.739-10.098,1.038-11.48-20.336-6.547.673-.037,21.519-8.836.908.094-54.976,15.936-1.638Zm-7.113,8.977l-.029,17.355,7.098-.729c5.918-.609,9.709-4.061,9.719-9.637s-3.693-8.336-9.689-7.721l-7.098.73Z"></path><path class="cls-4" d="m1214.49,606.093l21.756,52.73-9.703.998-5.262-12.887-23.271,2.392-5.229,13.965-9.703.997,21.945-57.222,9.467-.974Zm-4.83,11.49l-1.033,3.09-7.684,20.422,17.512-1.801-7.777-18.832-1.018-2.879Z"></path><path class="cls-4" d="m1276.254,599.745c5.68-.584,10.172.525,13.559,3.396s5.115,6.855,5.107,11.961c-.01,5.104-1.752,9.367-5.15,12.936-3.396,3.49-7.895,5.523-13.574,6.107l-8.127.834-.035,20.577-8.834.908.094-54.976,16.961-1.744Zm-8.141,9.082l-.031,17.906,8.127-.835c5.916-.608,9.707-4.296,9.717-9.872.01-5.654-3.693-8.65-9.688-8.034l-8.125.835Z"></path><path class="cls-4" d="m1365.31,590.593l-21.436,36.518-.035,20.655-8.994.925.035-20.656-21.32-32.123,10.336-1.062,13.453,19.897,1.965,3.489,2.057-3.902,13.605-22.679,10.334-1.062Z"></path></g></svg>